<svg width="1662" height="413" viewBox="0 0 1662 413" fill="none" xmlns="http://www.w3.org/2000/svg">
<path d="M29.8154 6.12331C32.2107 7.49208 34.0927 8.17646 35.4615 8.17646L52.9132 7.14989L54.9664 8.17646C56.3352 7.49208 57.7039 7.14989 59.0727 7.14989C63.5212 7.14989 66.0876 11.0851 66.772 18.9555C66.0876 21.0086 65.4032 22.0352 64.7188 22.0352L65.7454 33.3275C65.7454 54.8855 65.4032 83.8007 64.7188 120.073C65.4032 132.734 65.7454 140.433 65.7454 143.171C65.061 151.726 64.7188 157.885 64.7188 161.649C65.4032 181.154 65.7454 193.131 65.7454 197.579C65.7454 201.685 65.4032 210.411 64.7188 223.757C65.4032 236.076 65.7454 248.052 65.7454 259.687C65.7454 267.557 65.4032 274.743 64.7188 281.245C65.4032 289.457 65.7454 299.894 65.7454 312.555C65.7454 326.243 65.4032 337.193 64.7188 345.406C65.4032 354.303 65.7454 366.621 65.7454 382.362V393.141C65.7454 403.407 61.468 408.54 52.9132 408.54H13.3902C5.5198 408.54 1.5846 404.605 1.5846 396.734V391.088C1.5846 383.902 1.92679 380.309 2.61117 380.309C1.92679 374.15 1.5846 369.017 1.5846 364.911V361.831C1.5846 338.562 1.92679 318.544 2.61117 301.776C1.92679 290.826 1.5846 280.732 1.5846 271.492C1.5846 267.044 1.92679 258.318 2.61117 245.315C1.92679 235.733 1.5846 221.19 1.5846 201.685C1.5846 199.29 1.24241 197.579 0.558029 196.553L1.5846 189.88V160.623C1.5846 157.885 1.24241 154.634 0.558029 150.87C1.24241 149.501 1.5846 147.277 1.5846 144.197C1.5846 140.775 1.24241 138.551 0.558029 137.525C1.24241 131.365 1.5846 126.232 1.5846 122.126V80.0366C1.5846 76.9568 1.24241 74.0482 0.558029 71.3107C1.24241 68.5732 1.5846 65.6645 1.5846 62.5848V44.1065C1.5846 42.7377 4.49323 41.5401 10.3105 40.5135L11.337 35.3806L9.2839 34.3541L2.61117 35.3806L1.5846 33.3275V16.9023C2.61117 10.4007 5.86199 7.14989 11.337 7.14989H23.6559L29.8154 6.12331ZM99.6428 3.04359C102.038 3.04359 103.236 3.38578 103.236 4.07017C110.422 3.38578 115.897 3.04359 119.661 3.04359H154.051C161.922 3.04359 167.054 13.8226 169.45 35.3806C178.347 60.0184 183.993 79.5233 186.388 93.8953C191.863 102.792 196.996 121.784 201.787 150.87L228.478 246.855H232.584C234.295 246.855 235.15 246.17 235.15 244.801C235.835 177.732 236.177 139.407 236.177 129.825C238.23 111.347 239.257 97.6594 239.257 88.7624C239.257 83.9718 238.915 76.4436 238.23 66.1778C238.915 59.334 239.257 51.6347 239.257 43.0799C239.257 41.369 238.915 39.8291 238.23 38.4604C238.915 34.6963 239.257 31.4454 239.257 28.7079V12.2827C239.257 6.12331 246.785 3.04359 261.841 3.04359H266.974C285.453 3.04359 294.692 6.80769 294.692 14.3359C296.403 32.8142 297.258 46.1597 297.258 54.3722C297.258 56.0832 296.403 68.9154 294.692 92.8687V133.932C294.692 136.669 294.007 143 292.639 152.923H293.665C293.665 153.608 293.323 153.95 292.639 153.95C293.323 171.402 293.665 184.405 293.665 192.96V193.986C293.665 196.724 294.007 199.974 294.692 203.739C294.007 208.871 293.323 211.438 292.639 211.438C293.323 217.94 293.665 222.73 293.665 225.81C293.665 242.577 293.323 267.044 292.639 299.21C291.954 302.29 291.27 303.829 290.585 303.829L291.612 311.529V328.98C291.612 329.665 291.27 330.007 290.585 330.007C290.585 331.034 290.928 331.547 291.612 331.547C290.928 339.075 289.388 345.235 286.992 350.025C290.072 353.105 291.612 362.857 291.612 379.283V384.415C291.612 401.525 288.703 410.08 282.886 410.08H278.267C269.37 410.08 260.815 409.395 252.602 408.027C251.233 408.027 248.325 408.711 243.876 410.08C226.082 409.053 217.185 404.605 217.185 396.734C192.205 295.446 172.358 218.624 157.644 166.269L155.078 165.242C153.025 165.926 151.998 166.611 151.998 167.295C151.998 171.744 151.656 179.443 150.971 190.393L151.998 196.039C151.314 202.541 149.774 225.126 147.378 263.793C147.378 264.477 147.721 264.82 148.405 264.82C147.721 268.584 147.378 270.808 147.378 271.492C148.063 301.263 148.405 319.741 148.405 326.927L149.432 331.547C149.089 334.284 148.405 335.653 147.378 335.653L149.432 359.264C148.747 363.713 148.405 368.846 148.405 374.663V380.309C148.405 382.02 148.063 383.389 147.378 384.415C148.063 386.126 148.405 387.324 148.405 388.008C148.405 401.354 144.812 408.027 137.626 408.027C132.835 408.027 125.478 407.684 115.555 407L108.882 408.027L107.342 405.46C109.053 405.46 109.909 404.776 109.909 403.407V402.38C109.909 401.012 109.053 400.327 107.342 400.327C107 400.327 105.973 401.354 104.262 403.407L105.289 405.46V408.027H103.236C95.7076 408.027 91.9435 404.947 91.9435 398.787V396.734C91.9435 385.1 93.4834 379.283 96.5631 379.283C98.9585 379.283 101.867 380.651 105.289 383.389L106.316 381.336L91.9435 363.371V352.592C91.9435 344.037 92.2857 331.034 92.9701 313.582H91.9435L92.9701 311.529V289.457C92.9701 285.351 92.6279 280.047 91.9435 273.546C93.3123 271.15 93.9967 268.926 93.9967 266.873C92.9701 266.873 91.9435 264.649 90.917 260.2C92.9701 196.21 94.51 160.109 95.5365 151.897C94.51 148.133 93.9967 143.684 93.9967 138.551C93.9967 127.943 96.2209 121.955 100.669 120.586V118.533C97.5897 118.533 95.8787 115.111 95.5365 108.267C96.2209 107.241 96.5631 105.872 96.5631 104.161C96.5631 101.081 95.7076 99.5414 93.9967 99.5414L95.5365 97.4883C94.51 81.0631 93.9967 70.2841 93.9967 65.1512L95.5365 61.045C94.51 59.6762 93.9967 58.1363 93.9967 56.4254C93.9967 55.741 94.51 54.5433 95.5365 52.8324L93.9967 46.6729V43.0799C94.3389 39.3158 95.1944 37.4338 96.5631 37.4338C94.8522 34.6963 93.9967 30.59 93.9967 25.1149V10.7429C93.9967 6.6366 95.8787 4.07017 99.6428 3.04359ZM396.343 0.477162C442.197 0.477162 471.283 11.5984 483.602 33.8408C495.236 47.8706 501.053 71.824 501.053 105.701C501.053 112.203 496.947 115.453 488.734 115.453H473.849C467.005 115.453 457.424 115.796 445.105 116.48C439.288 115.111 436.379 111.86 436.379 106.727V84.1428C433.984 68.0599 426.798 60.0184 414.821 60.0184H406.095C391.723 60.0184 382.997 67.3755 379.918 82.0897V85.1694C379.918 106.385 379.576 128.799 378.891 152.41C379.576 160.623 379.918 170.033 379.918 180.641C379.576 183.72 378.891 185.26 377.865 185.26C378.549 187.998 379.233 189.367 379.918 189.367C379.918 190.393 379.576 191.591 378.891 192.96C379.576 211.78 379.918 226.665 379.918 237.615V243.775C379.918 249.25 379.576 253.356 378.891 256.094C379.576 260.884 379.918 265.504 379.918 269.953V299.723C379.918 306.225 379.576 315.635 378.891 327.954C378.891 340.273 386.077 348.485 400.449 352.592H412.768C427.14 350.538 434.326 343.352 434.326 331.034V303.829C434.326 295.275 441.17 290.997 454.858 290.997C461.701 291.682 468.374 292.024 474.876 292.024H489.761C497.289 292.024 501.053 296.986 501.053 306.909C501.053 377.4 468.032 412.646 401.989 412.646C385.564 412.646 366.572 406.487 345.014 394.168C324.825 374.663 314.73 351.052 314.73 323.334C315.415 277.481 316.099 244.117 316.784 223.243C316.099 215.031 315.757 204.252 315.757 190.906C315.757 181.667 316.099 173.284 316.784 165.755C316.099 157.201 315.757 146.251 315.757 132.905C315.757 115.796 316.441 102.792 317.81 93.8953C317.126 91.1578 316.784 87.9069 316.784 84.1428C316.784 49.9238 333.551 24.4305 367.086 7.66317C374.614 4.92564 384.366 2.53031 396.343 0.477162ZM563.695 7.66317C569.512 7.66317 573.105 9.37413 574.474 12.796V15.3625C574.474 24.6016 575.329 40.1713 577.04 62.0715C577.04 65.8356 576.698 74.2193 576.014 87.2226C577.382 108.781 578.067 122.297 578.067 127.772C578.067 133.932 577.725 138.722 577.04 142.144C577.725 157.201 578.067 170.717 578.067 182.694V231.969C578.067 242.577 578.409 251.988 579.093 260.2C578.409 263.28 578.067 271.321 578.067 284.325V294.077C578.067 300.921 578.409 310.502 579.093 322.821C577.725 326.243 576.698 327.954 576.014 327.954C582.515 344.037 590.899 352.078 601.165 352.078H613.997C628.711 348.999 636.068 342.155 636.068 331.547C636.068 320.939 636.41 309.989 637.095 298.697C636.41 283.64 636.068 269.439 636.068 256.094C636.068 255.067 636.41 253.87 637.095 252.501C635.726 238.129 634.699 218.111 634.015 192.446C634.015 189.024 634.357 184.234 635.042 178.074C634.357 168.151 634.015 157.201 634.015 145.224V132.392C634.015 129.654 633.502 126.403 632.475 122.639C633.16 119.56 634.015 118.02 635.042 118.02L634.015 110.32V101.595C634.015 97.4883 634.357 91.671 635.042 84.1428L634.015 82.0897C634.015 81.0631 634.357 79.8655 635.042 78.4967L632.475 53.3457C632.475 52.6613 632.988 52.3191 634.015 52.3191L632.475 44.6198V16.389C632.475 12.2827 634.699 9.37413 639.148 7.66317C639.832 7.66317 640.175 8.00536 640.175 8.68974C647.703 8.00536 653.178 7.66317 656.6 7.66317H686.37C692.188 8.34755 695.096 10.5718 695.096 14.3359C695.096 36.9205 695.781 55.741 697.149 70.7974C696.465 78.3256 696.123 84.1428 696.123 88.2491C696.123 94.0664 696.465 109.465 697.149 134.445L696.123 139.064C696.807 140.433 697.149 141.46 697.149 142.144C697.149 143.855 696.807 145.224 696.123 146.251C697.491 161.991 698.518 178.759 699.202 196.553C699.202 198.948 698.86 201.514 698.176 204.252C698.86 214.175 699.202 222.559 699.202 229.403V263.28C699.202 264.306 699.716 264.82 700.742 264.82L699.202 266.873V315.122C699.202 359.264 683.633 388.693 652.493 403.407C640.859 409.224 628.369 412.133 615.023 412.133H604.244C560.102 412.133 532.384 391.773 521.092 351.052C518.355 339.075 516.986 329.152 516.986 321.281V312.555C516.986 311.871 517.328 311.529 518.012 311.529L516.986 309.476V252.501L518.012 245.828C517.328 244.801 516.986 243.091 516.986 240.695V232.996C516.986 229.916 517.328 225.81 518.012 220.677C516.301 220.677 515.104 211.609 514.419 193.473C514.419 188.682 514.762 183.892 515.446 179.101C514.762 169.519 514.419 159.425 514.419 148.817V131.365C514.419 128.285 514.077 125.377 513.393 122.639C514.077 119.902 514.419 116.48 514.419 112.374C514.419 102.45 514.077 84.6561 513.393 58.9918H512.366L513.393 56.9387V17.4156C513.393 10.914 521.434 7.66317 537.517 7.66317H563.695ZM800.854 5.61003L808.553 6.6366C811.291 5.95222 815.055 5.61003 819.845 5.61003C856.46 5.61003 881.44 24.2594 894.785 61.5582C897.523 74.2193 898.891 88.4202 898.891 104.161V106.214C898.891 107.925 899.405 109.465 900.431 110.834C899.405 121.442 897.865 128.799 895.812 132.905L896.838 137.525C896.838 154.976 888.968 171.744 873.227 187.827C871.174 187.827 869.292 189.367 867.581 192.446C890.166 209.214 901.458 224.783 901.458 239.155C904.195 242.235 906.077 261.227 907.104 296.13C907.104 299.894 906.249 301.776 904.538 301.776C905.222 304.856 906.077 306.396 907.104 306.396C907.104 319.741 904.024 327.27 897.865 328.98C897.865 330.349 897.523 331.034 896.838 331.034C896.838 332.06 898.72 333.942 902.484 336.68V337.706C902.484 358.58 889.481 378.256 863.475 396.734C855.604 399.814 849.274 401.354 844.483 401.354L841.917 395.708H840.89C836.784 402.552 831.651 405.973 825.491 405.973H823.952C769.543 406.658 737.548 407 727.967 407C723.519 405.631 721.294 402.723 721.294 398.274C722.663 395.537 723.347 393.655 723.347 392.628C721.979 392.628 721.294 391.773 721.294 390.062V385.955C721.637 382.191 722.321 380.309 723.347 380.309L722.321 375.69C722.321 371.241 721.979 362.002 721.294 347.972L722.321 336.68H721.294L722.321 334.113V323.334C722.321 306.909 722.663 287.062 723.347 263.793L722.321 259.174C723.005 255.409 723.347 251.816 723.347 248.394V237.102C723.347 236.076 724.545 234.878 726.94 233.509H728.994L731.56 235.049V233.509C726.769 231.798 724.032 229.916 723.347 227.863V175.508C723.347 172.428 723.861 168.322 724.887 163.189L723.347 161.136C724.716 156.345 726.256 153.265 727.967 151.897C724.887 147.79 723.347 142.657 723.347 136.498V130.852C723.347 121.271 724.887 116.48 727.967 116.48V113.913C724.887 113.913 723.005 105.701 722.321 89.2757C724.032 79.3522 725.572 73.3638 726.94 71.3107C726.94 70.6263 725.401 69.2575 722.321 67.2044C723.005 44.6198 724.203 30.4189 725.914 24.6016L723.347 23.5751L724.887 17.9289C724.887 17.2445 724.374 16.0468 723.347 14.3359C725.058 9.20303 727.796 6.6366 731.56 6.6366C769.543 5.95222 792.641 5.61003 800.854 5.61003ZM787.508 66.1778L785.968 71.3107V78.4967C785.968 84.6561 786.482 94.5797 787.508 108.267C786.14 108.267 784.942 109.465 783.915 111.86L787.508 116.48C787.508 122.982 786.995 127.43 785.968 129.825C786.995 136.327 787.508 141.802 787.508 146.251V165.242L788.535 167.809L796.234 166.782H811.633C826.005 166.782 834.217 155.832 836.27 133.932C836.27 124.35 838.153 119.56 841.917 119.56H844.483V118.533C840.377 118.533 837.639 116.651 836.27 112.887C837.297 111.518 837.81 110.492 837.81 109.807C834.731 94.4086 831.993 83.1163 829.598 75.9303C825.834 69.4286 820.359 66.1778 813.173 66.1778H787.508ZM827.545 223.757C827.545 226.494 826.005 227.863 822.925 227.863C810.606 225.81 799.485 224.783 789.561 224.783C788.877 224.783 787.679 225.81 785.968 227.863L787.508 241.722V244.801C787.508 249.592 786.995 257.12 785.968 267.386H787.508C787.508 268.07 786.995 268.413 785.968 268.413C786.995 275.941 787.508 281.587 787.508 285.351V347.972H817.279C833.704 347.972 841.917 331.889 841.917 299.723V264.82C841.917 253.527 839.35 242.748 834.217 232.483H835.244C836.613 233.167 838.153 233.509 839.863 233.509L840.89 231.456C839.521 230.772 838.495 230.429 837.81 230.429C836.099 231.114 834.902 231.456 834.217 231.456C834.217 230.772 833.875 230.429 833.191 230.429L834.217 227.863C831.138 226.152 829.598 224.783 829.598 223.757H827.545ZM1017.99 5.61003C1024.5 6.29441 1029.97 6.6366 1034.42 6.6366H1044.69C1050.84 6.6366 1054.44 15.5336 1055.46 33.3275C1057.18 38.1182 1058.03 42.3956 1058.03 46.1597V54.8855C1058.03 55.9121 1057.52 56.4254 1056.49 56.4254C1059.91 65.3223 1064.02 90.1312 1068.81 130.852L1075.48 164.216L1076.51 176.021L1077.54 183.72H1076.51C1078.56 189.195 1079.59 193.644 1079.59 197.066C1079.59 197.75 1079.25 198.948 1078.56 200.659L1091.91 280.732L1090.88 282.785V286.378C1093.62 293.222 1097.21 315.977 1101.66 354.645C1102.34 354.645 1103.2 356.869 1104.23 361.318L1102.69 363.371L1104.23 369.017C1103.2 370.386 1102.69 371.412 1102.69 372.097C1104.74 376.203 1106.96 385.784 1109.36 400.841C1107.99 404.262 1106.62 406.145 1105.25 406.487H1097.55C1094.47 406.487 1090.37 405.973 1085.23 404.947L1078.56 407.513C1072.4 406.829 1067.27 406.487 1063.16 406.487L1055.46 407.513C1048.28 407.513 1044.69 397.248 1044.69 376.716C1044.69 372.952 1045.37 371.07 1046.74 371.07C1046.74 369.701 1044.51 359.778 1040.07 341.299L1042.12 336.68L1040.07 333.6H1039.04C1037.33 316.833 1035.45 307.594 1033.39 305.883C1024.84 306.909 1018.68 307.422 1014.91 307.422H990.79C979.84 307.422 974.365 309.989 974.365 315.122H972.825L974.365 322.821V325.901C974.365 327.954 973.167 330.863 970.772 334.627C970.772 335.311 971.114 336.509 971.799 338.22C967.008 384.415 962.217 407.513 957.427 407.513C955.031 407.513 953.32 407.855 952.294 408.54L938.948 407.513L929.196 408.54L922.523 407.513C918.759 407.513 916.877 408.198 916.877 409.566C906.611 409.566 901.478 407 901.478 401.867V399.814C907.296 365.253 914.31 317.859 922.523 257.634C923.207 257.634 923.892 256.607 924.576 254.554L923.55 249.934L941.001 140.091C943.397 140.091 945.963 127.601 948.701 102.621C953.149 71.824 957.255 47.5284 961.02 29.7345L966.666 30.7611H967.692C967.692 29.3923 965.468 28.7079 961.02 28.7079V25.6282C961.02 12.9671 966.152 6.6366 976.418 6.6366H979.498C985.657 6.6366 991.646 6.97879 997.463 7.66317L1017.99 5.61003ZM999.516 112.374C998.832 141.118 996.607 155.49 992.843 155.49H989.764V156.516L990.79 158.569L992.843 157.543C994.212 157.885 994.896 158.569 994.896 159.596C990.448 197.921 986.513 223.243 983.091 235.562C984.46 235.905 985.144 236.589 985.144 237.615V248.908C988.908 249.592 993.357 249.934 998.489 249.934C996.779 252.33 995.923 254.212 995.923 255.581C996.95 256.949 997.463 257.976 997.463 258.66C1000.54 254.896 1003.11 253.014 1005.16 253.014L1009.27 255.581L1010.3 253.014C1008.93 253.014 1008.24 252.33 1008.24 250.961V248.908C1008.58 248.908 1010.12 248.566 1012.86 247.881C1013.2 247.881 1017.82 248.223 1026.72 248.908V247.881C1018.17 170.204 1012.69 126.575 1010.3 116.993C1010.98 115.282 1011.32 114.085 1011.32 113.4C1011.32 112.031 1010.64 109.807 1009.27 106.727C1009.95 105.701 1010.3 104.332 1010.3 102.621V101.595L1005.16 100.055C1003.79 100.055 1001.91 104.161 999.516 112.374ZM1095.01 7.14989H1117.59L1125.29 8.17646C1127 7.49208 1133.5 7.14989 1144.8 7.14989H1176.62L1183.29 8.17646C1184.66 7.49208 1185.69 7.14989 1186.37 7.14989C1188.08 7.14989 1189.62 7.49208 1190.99 8.17646C1193.39 8.17646 1195.1 7.83427 1196.13 7.14989C1209.13 7.83427 1219.74 8.17646 1227.95 8.17646H1240.78C1242.49 8.17646 1244.03 7.83427 1245.4 7.14989C1253.27 7.14989 1257.21 10.0585 1257.21 15.8758C1258.58 18.2711 1259.26 20.4953 1259.26 22.5485V50.7792L1258.23 57.452C1258.92 58.4785 1259.26 59.8473 1259.26 61.5582C1256.18 65.3223 1249.34 67.2044 1238.73 67.2044C1228.46 66.52 1218.71 66.1778 1209.47 66.1778H1200.74V82.0897C1199.03 89.2757 1198.18 93.382 1198.18 94.4086L1200.74 98.5149C1200.74 100.226 1200.4 101.766 1199.72 103.134C1199.72 105.53 1200.06 107.412 1200.74 108.781C1200.06 118.704 1199.72 127.43 1199.72 134.958V152.41C1199.72 153.779 1200.06 155.147 1200.74 156.516L1199.72 158.569C1201.09 168.493 1201.77 174.652 1201.77 177.048L1200.74 182.694C1201.43 186.8 1201.77 190.735 1201.77 194.499L1200.74 200.146L1199.72 203.225H1201.77L1200.74 205.792V208.871C1200.74 210.582 1201.09 212.122 1201.77 213.491C1201.77 214.518 1199.89 216.913 1196.13 220.677V229.403C1199.89 229.403 1201.77 233.167 1201.77 240.695L1199.72 254.554L1202.8 270.979C1202.11 275.085 1201.77 278.336 1201.77 280.732C1202.46 287.233 1202.8 293.05 1202.8 298.183L1206.9 366.964C1206.9 372.097 1204.85 374.663 1200.74 374.663V376.716C1203.48 376.716 1204.85 377.058 1204.85 377.743L1205.88 395.194L1204.85 400.841H1205.88C1204.51 405.289 1200.57 407.513 1194.07 407.513H1176.62C1175.94 407.513 1175.59 407.855 1175.59 408.54C1155.06 407.171 1144.8 404.947 1144.8 401.867C1144.11 398.103 1143.77 394.852 1143.77 392.115V373.636L1145.82 370.557L1143.77 366.964V364.911L1144.8 357.211C1144.11 357.211 1143.09 355.842 1141.72 353.105L1142.74 347.459V333.087C1142.74 330.349 1142.4 326.414 1141.72 321.281C1141.72 320.255 1142.06 317.346 1142.74 312.555H1141.72C1142.4 301.263 1143.43 294.761 1144.8 293.05C1143.77 293.05 1142.74 291.511 1141.72 288.431C1143.09 280.903 1143.77 276.283 1143.77 274.572C1142.4 272.177 1141.72 269.61 1141.72 266.873C1141.72 255.923 1141.37 243.091 1140.69 228.376L1142.74 214.518C1141.37 197.066 1140.69 184.576 1140.69 177.048C1140.69 174.652 1141.03 165.584 1141.72 149.844C1141.03 143.684 1140.69 138.209 1140.69 133.418C1140.69 130.681 1142.4 129.312 1145.82 129.312V128.285C1145.82 126.917 1144.45 125.377 1141.72 123.666L1142.74 121.613V120.586C1142.74 119.56 1141.72 118.533 1139.66 117.506L1140.69 114.94V111.86C1140.69 105.359 1141.03 100.91 1141.72 98.5149C1141.03 92.3554 1140.69 86.8804 1140.69 82.0897V68.231L1138.64 64.638C1127.69 65.6645 1119.65 66.1778 1114.51 66.1778H1092.44C1085.26 66.1778 1081.66 61.3871 1081.66 51.8058V48.7261C1081.66 41.1979 1082.69 36.065 1084.74 33.3275V32.3009C1082.69 29.5634 1081.66 25.1149 1081.66 18.9555C1081.66 11.7695 1086.11 7.83427 1095.01 7.14989ZM1339.87 2.53031C1374.77 3.89907 1392.22 6.4655 1392.22 10.2296C1390.85 10.5718 1390.17 11.2562 1390.17 12.2827C1390.17 13.9937 1390.85 14.8492 1392.22 14.8492C1392.91 13.4804 1393.25 11.5984 1393.25 9.20303C1395.64 9.20303 1396.84 11.0851 1396.84 14.8492H1397.87L1400.95 12.2827H1401.97V15.8758H1406.59C1411.38 15.8758 1416.52 19.1266 1421.99 25.6282C1421.99 26.997 1420.97 27.6813 1418.91 27.6813V30.2478C1419.25 30.2478 1420.79 29.9056 1423.53 29.2212C1432.43 29.2212 1440.47 48.3839 1447.66 86.7093L1446.63 93.382C1448.68 135.129 1450.22 171.402 1451.25 202.199C1450.56 205.278 1449.71 206.818 1448.68 206.818C1449.37 208.187 1449.71 209.214 1449.71 209.898C1449.71 232.14 1450.22 258.147 1451.25 287.918C1450.22 304.685 1449.71 320.255 1449.71 334.627C1446.29 356.185 1439.79 372.439 1430.2 383.389C1412.41 402.552 1390.17 412.133 1363.48 412.133H1354.24L1350.13 409.053L1344.49 412.133C1328.4 412.133 1312.15 405.802 1295.72 393.141L1296.75 391.088V385.442C1296.75 384.073 1296.07 383.389 1294.7 383.389H1292.13C1292.13 385.442 1291.45 386.469 1290.08 386.469H1289.05C1273.31 374.834 1265.44 344.55 1265.44 295.617C1265.44 281.929 1265.1 260.371 1264.41 230.943C1265.78 228.547 1266.47 226.323 1266.47 224.27C1265.1 221.875 1264.41 219.65 1264.41 217.597V158.056C1264.41 157.03 1264.07 156.516 1263.39 156.516C1264.07 155.147 1264.41 154.121 1264.41 153.437C1265.1 113.742 1265.44 90.4734 1265.44 83.6296C1268.18 63.4403 1272.97 47.5284 1279.81 35.8939C1298.63 13.6515 1318.65 2.53031 1339.87 2.53031ZM1327.55 95.4351V116.993C1327.55 117.678 1327.2 118.02 1326.52 118.02L1327.55 120.073V254.554C1327.55 255.923 1327.2 256.607 1326.52 256.607C1327.2 266.531 1327.55 273.888 1327.55 278.678V315.635C1327.55 339.931 1335.08 352.078 1350.13 352.078H1370.15C1380.42 345.235 1385.55 337.193 1385.55 327.954V306.396C1385.55 302.632 1385.21 297.499 1384.52 290.997C1385.89 287.918 1386.58 282.1 1386.58 273.546V214.518C1386.58 211.78 1386.23 208.358 1385.55 204.252C1386.92 200.488 1387.6 197.579 1387.6 195.526C1386.23 193.131 1385.55 190.906 1385.55 188.853V139.064C1385.89 137.354 1386.58 136.498 1387.6 136.498H1388.63L1391.19 138.038L1392.22 135.471L1390.17 134.445H1388.63L1386.58 135.471C1385.21 133.076 1384.52 130.852 1384.52 128.799C1384.52 124.692 1384.18 109.636 1383.5 83.6296C1379.39 68.5732 1372.37 61.045 1362.45 61.045H1351.16C1335.42 61.045 1327.55 72.5084 1327.55 95.4351ZM1569.33 3.04359C1608.34 3.04359 1633.83 24.7727 1645.81 68.231C1647.17 75.7592 1647.86 82.0897 1647.86 87.2226H1646.83C1648.2 89.9601 1648.88 92.8687 1648.88 95.9484V130.339C1648.54 184.063 1632.8 217.94 1601.66 231.969V234.536C1606.8 252.33 1612.61 269.268 1619.11 285.351L1632.46 320.768C1631.09 321.452 1630.06 321.794 1629.38 321.794V326.414C1630.75 326.414 1631.43 326.756 1631.43 327.441L1633.49 326.414H1635.54L1643.75 348.485C1648.88 360.462 1651.45 368.846 1651.45 373.636H1648.88V377.229C1657.1 380.651 1661.2 389.548 1661.2 403.92C1656.07 405.973 1651.96 407 1648.88 407H1610.39C1597.04 407 1590.37 400.327 1590.37 386.982C1572.58 334.969 1559.74 294.077 1551.87 264.306C1546.74 249.592 1542.98 241.551 1540.58 240.182H1537.5C1535.79 240.182 1534.94 240.866 1534.94 242.235V280.732L1532.88 288.431C1534.25 289.8 1535.28 296.815 1535.96 309.476C1535.96 318.373 1534.25 322.821 1530.83 322.821L1528.26 329.494H1531.86C1531.86 327.441 1532.54 326.414 1533.91 326.414H1534.94L1535.96 331.547V334.113C1535.96 353.276 1534.94 362.857 1532.88 362.857C1530.83 362.857 1529.8 363.542 1529.8 364.911V365.937C1533.22 365.937 1534.94 368.161 1534.94 372.61C1534.94 376.032 1535.28 378.256 1535.96 379.283L1534.94 385.955V398.274C1534.94 402.38 1533.22 404.947 1529.8 405.973C1509.27 406.658 1493.36 407 1482.07 407C1474.54 406.316 1470.77 403.065 1470.77 397.248V329.494C1470.77 326.756 1471.12 323.505 1471.8 319.741C1470.43 314.608 1469.75 302.461 1469.75 283.298V219.137C1469.75 218.111 1470.09 217.597 1470.77 217.597L1469.75 215.544V142.657C1470.09 140.947 1470.77 140.091 1471.8 140.091C1470.43 132.905 1469.75 126.403 1469.75 120.586V80.5498C1469.75 79.1811 1470.95 78.4967 1473.34 78.4967V75.9303C1470.26 75.9303 1468.72 74.2193 1468.72 70.7974V14.3359C1468.72 8.51865 1472.49 5.61003 1480.01 5.61003H1497.47C1500.2 5.61003 1503.45 5.95222 1507.22 6.6366C1510.3 4.92564 1514.4 4.07017 1519.54 4.07017H1523.13C1537.16 4.07017 1552.56 3.72798 1569.33 3.04359ZM1533.91 66.1778V92.8687C1533.91 94.5797 1534.25 95.9484 1534.94 96.975C1533.57 100.739 1532.88 105.188 1532.88 110.32C1534.25 112.716 1534.94 114.94 1534.94 116.993V148.304C1534.94 150.699 1533.91 154.292 1531.86 159.083C1533.22 161.478 1533.91 163.702 1533.91 165.755V175.508L1532.88 178.074C1535.62 180.127 1544.17 181.154 1558.55 181.154C1575.31 181.154 1584.9 169.691 1587.29 146.764C1587.29 145.395 1587.97 144.711 1589.34 144.711C1588.66 142.657 1587.97 141.631 1587.29 141.631C1587.29 140.604 1587.63 140.091 1588.32 140.091L1587.29 134.958V109.294C1587.29 79.1811 1579.93 64.1247 1565.22 64.1247H1535.96C1534.59 64.1247 1533.91 64.8091 1533.91 66.1778Z" fill="#251607"/>
</svg>
